<?xml version="1.0" encoding="UTF-8"?>
<svg width="171px" height="69px" viewBox="0 0 171 69" version="1.1" xmlns="http://www.w3.org/2000/svg" xmlns:xlink="http://www.w3.org/1999/xlink">
    <title>Group 6</title>
    <g id="Page-1" stroke="none" stroke-width="1" fill="none" fill-rule="evenodd">
        <g id="Siegecraft-Mobile-v3" transform="translate(-102.000000, -1168.000000)">
            <g id="Group-6" transform="translate(102.000000, 1168.000000)">
                <g id="Group-5">
                    <rect id="Rectangle-Copy-7" x="0" y="0" width="171" height="69"></rect>
                </g>
                <g id="Group-24-Copy-3" transform="translate(85.500000, 32.500000)" fill="#3E3636">
                    <path d="M10.9885233,-8.5975671e-13 L21.7324152,5.78932392 L10.9885233,11.4438915 L0.339871099,5.70605712 L10.9885233,-8.5975671e-13 Z M6.50567959,4.38480161 C5.8948023,4.38480161 5.39958841,4.88763273 5.39958841,5.50790634 C5.39958841,6.12817995 5.8948023,6.63101107 6.50567959,6.63101107 C7.11655688,6.63101107 7.61177078,6.12817995 7.61177078,5.50790634 C7.61177078,4.88763273 7.11655688,4.38480161 6.50567959,4.38480161 Z M10.9300443,4.38480161 C10.319167,4.38480161 9.82395314,4.88763273 9.82395314,5.50790634 C9.82395314,6.12817995 10.319167,6.63101107 10.9300443,6.63101107 C11.5409216,6.63101107 12.0361355,6.12817995 12.0361355,5.50790634 C12.0361355,4.88763273 11.5409216,4.38480161 10.9300443,4.38480161 Z M15.3544091,4.38480161 C14.7435318,4.38480161 14.2483179,4.88763273 14.2483179,5.50790634 C14.2483179,6.12817995 14.7435318,6.63101107 15.3544091,6.63101107 C15.9652864,6.63101107 16.4605003,6.12817995 16.4605003,5.50790634 C16.4605003,4.88763273 15.9652864,4.38480161 15.3544091,4.38480161 Z" id="Combined-Shape"></path>
                    <path d="M21.8712814,6.10625068 L22,19.177495 L11.1896305,25 L11.1896305,11.7987145 L21.8712814,6.10625068 Z M13.6952723,18.6107948 C13.1862079,18.6107948 12.7735296,19.1974311 12.7735296,19.9210837 C12.7735296,20.6447362 13.1862079,21.2313725 13.6952723,21.2313725 C14.2043367,21.2313725 14.6170149,20.6447362 14.6170149,19.9210837 C14.6170149,19.1974311 14.2043367,18.6107948 13.6952723,18.6107948 Z M19.5944253,8.87722052 C19.0853609,8.87722052 18.6726826,9.46385682 18.6726826,10.1875094 C18.6726826,10.9111619 19.0853609,11.4977982 19.5944253,11.4977982 C20.1034897,11.4977982 20.5161679,10.9111619 20.5161679,10.1875094 C20.5161679,9.46385682 20.1034897,8.87722052 19.5944253,8.87722052 Z" id="Combined-Shape"></path>
                    <path d="M0.128718637,6.10625068 L10.8103695,11.7987145 L10.8103695,25 L-5.58220137e-13,19.177495 L0.128718637,6.10625068 Z M5.58393694,14.1183759 C5.07487253,14.1183759 4.66219428,14.7050122 4.66219428,15.4286648 C4.66219428,16.1523173 5.07487253,16.7389536 5.58393694,16.7389536 C6.09300135,16.7389536 6.50567959,16.1523173 6.50567959,15.4286648 C6.50567959,14.7050122 6.09300135,14.1183759 5.58393694,14.1183759 Z" id="Combined-Shape"></path>
                </g>
                <g id="Group-24-Copy" transform="translate(74.000000, 13.000000)" fill="#3E3636">
                    <path d="M10.9885233,-8.5975671e-13 L21.7324152,5.78932392 L10.9885233,11.4438915 L0.339871099,5.70605712 L10.9885233,-8.5975671e-13 Z M6.50567959,4.38480161 C5.8948023,4.38480161 5.39958841,4.88763273 5.39958841,5.50790634 C5.39958841,6.12817995 5.8948023,6.63101107 6.50567959,6.63101107 C7.11655688,6.63101107 7.61177078,6.12817995 7.61177078,5.50790634 C7.61177078,4.88763273 7.11655688,4.38480161 6.50567959,4.38480161 Z M10.9300443,4.38480161 C10.319167,4.38480161 9.82395314,4.88763273 9.82395314,5.50790634 C9.82395314,6.12817995 10.319167,6.63101107 10.9300443,6.63101107 C11.5409216,6.63101107 12.0361355,6.12817995 12.0361355,5.50790634 C12.0361355,4.88763273 11.5409216,4.38480161 10.9300443,4.38480161 Z M15.3544091,4.38480161 C14.7435318,4.38480161 14.2483179,4.88763273 14.2483179,5.50790634 C14.2483179,6.12817995 14.7435318,6.63101107 15.3544091,6.63101107 C15.9652864,6.63101107 16.4605003,6.12817995 16.4605003,5.50790634 C16.4605003,4.88763273 15.9652864,4.38480161 15.3544091,4.38480161 Z" id="Combined-Shape"></path>
                    <path d="M21.8712814,6.10625068 L22,19.177495 L11.1896305,25 L11.1896305,11.7987145 L21.8712814,6.10625068 Z M13.6952723,18.6107948 C13.1862079,18.6107948 12.7735296,19.1974311 12.7735296,19.9210837 C12.7735296,20.6447362 13.1862079,21.2313725 13.6952723,21.2313725 C14.2043367,21.2313725 14.6170149,20.6447362 14.6170149,19.9210837 C14.6170149,19.1974311 14.2043367,18.6107948 13.6952723,18.6107948 Z M19.5944253,8.87722052 C19.0853609,8.87722052 18.6726826,9.46385682 18.6726826,10.1875094 C18.6726826,10.9111619 19.0853609,11.4977982 19.5944253,11.4977982 C20.1034897,11.4977982 20.5161679,10.9111619 20.5161679,10.1875094 C20.5161679,9.46385682 20.1034897,8.87722052 19.5944253,8.87722052 Z" id="Combined-Shape"></path>
                    <path d="M0.128718637,6.10625068 L10.8103695,11.7987145 L10.8103695,25 L-5.58220137e-13,19.177495 L0.128718637,6.10625068 Z M5.58393694,14.1183759 C5.07487253,14.1183759 4.66219428,14.7050122 4.66219428,15.4286648 C4.66219428,16.1523173 5.07487253,16.7389536 5.58393694,16.7389536 C6.09300135,16.7389536 6.50567959,16.1523173 6.50567959,15.4286648 C6.50567959,14.7050122 6.09300135,14.1183759 5.58393694,14.1183759 Z" id="Combined-Shape"></path>
                </g>
                <g id="Group-24-Copy-2" transform="translate(63.000000, 32.500000)" fill="#3E3636">
                    <path d="M10.9885233,-8.5975671e-13 L21.7324152,5.78932392 L10.9885233,11.4438915 L0.339871099,5.70605712 L10.9885233,-8.5975671e-13 Z M6.50567959,4.38480161 C5.8948023,4.38480161 5.39958841,4.88763273 5.39958841,5.50790634 C5.39958841,6.12817995 5.8948023,6.63101107 6.50567959,6.63101107 C7.11655688,6.63101107 7.61177078,6.12817995 7.61177078,5.50790634 C7.61177078,4.88763273 7.11655688,4.38480161 6.50567959,4.38480161 Z M10.9300443,4.38480161 C10.319167,4.38480161 9.82395314,4.88763273 9.82395314,5.50790634 C9.82395314,6.12817995 10.319167,6.63101107 10.9300443,6.63101107 C11.5409216,6.63101107 12.0361355,6.12817995 12.0361355,5.50790634 C12.0361355,4.88763273 11.5409216,4.38480161 10.9300443,4.38480161 Z M15.3544091,4.38480161 C14.7435318,4.38480161 14.2483179,4.88763273 14.2483179,5.50790634 C14.2483179,6.12817995 14.7435318,6.63101107 15.3544091,6.63101107 C15.9652864,6.63101107 16.4605003,6.12817995 16.4605003,5.50790634 C16.4605003,4.88763273 15.9652864,4.38480161 15.3544091,4.38480161 Z" id="Combined-Shape"></path>
                    <path d="M21.8712814,6.10625068 L22,19.177495 L11.1896305,25 L11.1896305,11.7987145 L21.8712814,6.10625068 Z M13.6952723,18.6107948 C13.1862079,18.6107948 12.7735296,19.1974311 12.7735296,19.9210837 C12.7735296,20.6447362 13.1862079,21.2313725 13.6952723,21.2313725 C14.2043367,21.2313725 14.6170149,20.6447362 14.6170149,19.9210837 C14.6170149,19.1974311 14.2043367,18.6107948 13.6952723,18.6107948 Z M19.5944253,8.87722052 C19.0853609,8.87722052 18.6726826,9.46385682 18.6726826,10.1875094 C18.6726826,10.9111619 19.0853609,11.4977982 19.5944253,11.4977982 C20.1034897,11.4977982 20.5161679,10.9111619 20.5161679,10.1875094 C20.5161679,9.46385682 20.1034897,8.87722052 19.5944253,8.87722052 Z" id="Combined-Shape"></path>
                    <path d="M0.128718637,6.10625068 L10.8103695,11.7987145 L10.8103695,25 L-5.58220137e-13,19.177495 L0.128718637,6.10625068 Z M5.58393694,14.1183759 C5.07487253,14.1183759 4.66219428,14.7050122 4.66219428,15.4286648 C4.66219428,16.1523173 5.07487253,16.7389536 5.58393694,16.7389536 C6.09300135,16.7389536 6.50567959,16.1523173 6.50567959,15.4286648 C6.50567959,14.7050122 6.09300135,14.1183759 5.58393694,14.1183759 Z" id="Combined-Shape"></path>
                </g>
            </g>
        </g>
    </g>
</svg>