<?xml version="1.0" encoding="UTF-8" standalone="no"?>
<!DOCTYPE svg PUBLIC "-//W3C//DTD SVG 1.1//EN" "http://www.w3.org/Graphics/SVG/1.1/DTD/svg11.dtd">
<svg width="100%" height="100%" viewBox="0 0 171 72" version="1.1" xmlns="http://www.w3.org/2000/svg" xmlns:xlink="http://www.w3.org/1999/xlink" xml:space="preserve" xmlns:serif="http://www.serif.com/" style="fill-rule:evenodd;clip-rule:evenodd;stroke-linejoin:round;stroke-miterlimit:2;">
    <g>
        <g>
            <path d="M84.033,37.541L91,20.87L85.277,20.87L78.808,40.452L82.789,40.452L79.577,48.992L77,48.992L78.712,52.149L80.426,55.304L82.139,52.149L83.851,48.992L82.239,48.992L87.517,37.541L84.033,37.541ZM49.143,42.783L47.574,41.87L47.569,41.87L46,40.954C53.725,31.71 52.583,26.84 54.625,23.286C56.651,19.752 61.923,16.742 61.995,16.696L62,16.696C62,16.789 62.047,22.892 60.025,26.42C57.984,29.985 53.232,31.42 49.143,42.783" style="fill:rgb(26,25,25);"/>
            <path d="M41.889,50.486C43.354,49.098 45.305,44.077 45.305,44.077L40,41.414C40,41.414 43.059,37.373 46.418,36.522C44.225,37.503 43.568,39.809 43.568,39.809L47.427,41.982L51.286,44.644C51.286,44.644 52.995,42.869 52.685,40.325C53.684,43.901 51.986,48.855 51.986,48.855L47.208,45.232C47.208,45.232 44.173,49.593 43.797,51.662L44.577,52.308C44.577,52.308 44.506,53.077 44.282,53.206C44.063,53.34 42.426,52.282 42.26,52.179C42.094,52.07 40.433,51.07 40.423,50.796C40.418,50.523 40.994,50.074 40.994,50.074L41.889,50.486Z" style="fill:rgb(26,25,25);"/>
            <g>
                <path d="M129.92,39.899C128.997,46.032 119,49.986 119,49.986C119,49.986 109.003,46.032 108.08,39.899L108.08,25.144L119,23.058L129.92,25.144L129.92,39.899ZM119,19.826L106,22.412L106,40.71C107.098,48.315 119,53.217 119,53.217C119,53.217 130.902,48.315 132,40.71L132,22.412L119,19.826Z" style="fill:rgb(26,25,25);"/>
                <path d="M110,26.822L110,39.401C110.76,44.63 119,48 119,48C119,48 127.24,44.63 128,39.401L128,26.822L119,25.043L110,26.822Z" style="fill:rgb(26,25,25);"/>
            </g>
        </g>
        <rect x="0" y="0" width="171" height="72" style="fill:none;"/>
    </g>
</svg>
