<?xml version="1.0" encoding="UTF-8" standalone="no"?>
<!DOCTYPE svg PUBLIC "-//W3C//DTD SVG 1.1//EN" "http://www.w3.org/Graphics/SVG/1.1/DTD/svg11.dtd">
<svg width="100%" height="100%" viewBox="0 0 1350 1350" version="1.1" xmlns="http://www.w3.org/2000/svg" xmlns:xlink="http://www.w3.org/1999/xlink" xml:space="preserve" xmlns:serif="http://www.serif.com/" style="fill-rule:evenodd;clip-rule:evenodd;stroke-miterlimit:10;">
    <g id="Layer-1" serif:id="Layer 1" transform="matrix(8.33333,0,0,8.33333,0,0)">
        <g opacity="0.9">
            <g>
                <clipPath id="_clip1">
                    <rect x="14.705" y="0.941" width="132.589" height="160.118" clip-rule="nonzero"/>
                </clipPath>
                <g clip-path="url(#_clip1)">
                    <g transform="matrix(1,0,0,1,17.5625,159.296)">
                        <path d="M0,-117.443L0,-39.147L63.438,0L126.875,-39.147L126.875,-117.443L63.438,-78.296L0,-117.443Z" style="fill:rgb(230,231,232);fill-rule:nonzero;stroke:rgb(35,31,32);stroke-width:3px;"/>
                    </g>
                    <g transform="matrix(1,0,0,1,17.5625,41.8526)">
                        <path d="M0,-0.001L0,-0L63.438,39.147L126.875,-0L126.875,-0.001L63.438,-39.148L0,-0.001Z" style="fill:white;fill-rule:nonzero;stroke:rgb(35,31,32);stroke-width:3px;"/>
                    </g>
                </g>
            </g>
        </g>
        <g opacity="0.9">
            <g transform="matrix(0.510298,-0.859998,-0.859998,-0.510298,51.5056,95.2733)">
                <path d="M-6.426,-3.659C-9.956,-5.742 -12.818,-4.084 -12.819,0.037C-12.818,4.165 -9.956,9.201 -6.426,11.286C-2.894,13.367 -0.032,11.709 -0.032,7.579C-0.033,3.459 -2.896,-1.576 -6.426,-3.659" style="fill:rgb(35,31,32);fill-rule:nonzero;"/>
            </g>
        </g>
        <g opacity="0.9">
            <g transform="matrix(-0.541559,-0.840663,-0.840663,0.541559,116.442,70.1968)">
                <path d="M-6.224,-11.418C-9.801,-9.153 -12.702,-3.999 -12.702,0.087C-12.702,4.179 -9.801,5.658 -6.224,3.393C-2.65,1.129 0.251,-4.024 0.25,-8.117C0.251,-12.202 -2.65,-13.682 -6.224,-11.418" style="fill:rgb(35,31,32);fill-rule:nonzero;"/>
            </g>
            <g transform="matrix(-0.541559,-0.840663,-0.840663,0.541559,87.0635,125.819)">
                <path d="M-6.224,-11.418C-9.801,-9.153 -12.702,-3.999 -12.702,0.087C-12.702,4.179 -9.801,5.658 -6.224,3.393C-2.65,1.129 0.251,-4.024 0.25,-8.117C0.251,-12.202 -2.65,-13.682 -6.224,-11.418" style="fill:rgb(35,31,32);fill-rule:nonzero;"/>
            </g>
        </g>
        <g opacity="0.9">
            <g transform="matrix(0.529234,-0.848476,-0.848476,-0.529234,113.828,34.9975)">
                <path d="M-6.231,-3.457C-9.955,-2.007 -12.973,2.462 -12.973,6.513C-12.971,10.571 -9.954,12.683 -6.231,11.234C-2.504,9.779 0.51,5.315 0.511,1.255C0.509,-2.793 -2.506,-4.908 -6.231,-3.457" style="fill:rgb(35,31,32);fill-rule:nonzero;"/>
            </g>
            <g transform="matrix(0.529271,-0.848453,-0.848453,-0.529271,85.1475,36.0475)">
                <path d="M-6.235,-3.458C-9.959,-2.001 -12.973,2.461 -12.975,6.513C-12.979,10.575 -9.955,12.688 -6.235,11.236C-2.512,9.781 0.507,5.318 0.507,1.263C0.505,-2.789 -2.511,-4.908 -6.235,-3.458" style="fill:rgb(35,31,32);fill-rule:nonzero;"/>
            </g>
            <g transform="matrix(0.529161,-0.848522,-0.848522,-0.529161,56.5245,37.0955)">
                <path d="M-6.232,-3.46C-9.959,-2.006 -12.976,2.461 -12.98,6.518C-12.978,10.576 -9.953,12.683 -6.232,11.235C-2.512,9.783 0.507,5.314 0.509,1.256C0.505,-2.796 -2.513,-4.91 -6.232,-3.46" style="fill:rgb(35,31,32);fill-rule:nonzero;"/>
            </g>
        </g>
    </g>
</svg>
