<?xml version="1.0" encoding="UTF-8" standalone="no"?>
<!DOCTYPE svg PUBLIC "-//W3C//DTD SVG 1.1//EN" "http://www.w3.org/Graphics/SVG/1.1/DTD/svg11.dtd">
<svg width="100%" height="100%" viewBox="0 0 30 37" version="1.1" xmlns="http://www.w3.org/2000/svg" xmlns:xlink="http://www.w3.org/1999/xlink" xml:space="preserve" xmlns:serif="http://www.serif.com/" style="fill-rule:evenodd;clip-rule:evenodd;stroke-linejoin:round;stroke-miterlimit:2;">
    <path d="M19.735,0.4C20.637,0.4 21.375,1.051 21.375,1.848C21.375,2.645 20.637,3.297 19.735,3.297L19.645,3.297L19.645,11.128C25.273,12.952 29.3,17.815 29.3,23.529C29.3,30.803 22.775,36.7 14.725,36.7C6.675,36.7 0.15,30.803 0.15,23.529C0.15,17.692 4.352,12.746 10.17,11.017L10.17,3.297L10.08,3.297C9.177,3.297 8.439,2.645 8.439,1.848C8.439,1.051 9.177,0.4 10.08,0.4L19.735,0.4ZM8.752,14.15C8.752,14.15 4.264,16.167 4,20.2C5.882,18.393 6.411,17.671 10.6,15.466L8.752,14.15Z" style="fill-rule:nonzero;"/>
</svg>
