<?xml version="1.0" encoding="UTF-8" standalone="no"?>
<!DOCTYPE svg PUBLIC "-//W3C//DTD SVG 1.1//EN" "http://www.w3.org/Graphics/SVG/1.1/DTD/svg11.dtd">
<svg width="100%" height="100%" viewBox="0 0 171 69" version="1.1" xmlns="http://www.w3.org/2000/svg" xmlns:xlink="http://www.w3.org/1999/xlink" xml:space="preserve" xmlns:serif="http://www.serif.com/" style="fill-rule:evenodd;clip-rule:evenodd;stroke-linejoin:round;stroke-miterlimit:2;">
    <g>
        <rect x="0" y="0" width="171" height="69" style="fill:none;"/>
        <g transform="matrix(1,0,0,1,34,8)">
            <path d="M32,29C32,27.896 31.104,27 30,27L2,27C0.896,27 0,27.896 0,29L0,47C0,48.104 0.896,49 2,49L30,49C31.104,49 32,48.104 32,47L32,29Z" style="fill:rgb(62,54,54);"/>
            <path d="M104,29C104,27.896 103.104,27 102,27L74,27C72.896,27 72,27.896 72,29L72,47C72,48.104 72.896,49 74,49L102,49C103.104,49 104,48.104 104,47L104,29Z" style="fill:rgb(62,54,54);"/>
            <path d="M86,2C86,0.896 85.104,0 84,0L56,0C54.896,0 54,0.896 54,2L54,20C54,21.104 54.896,22 56,22L84,22C85.104,22 86,21.104 86,20L86,2Z" style="fill:rgb(62,54,54);"/>
            <path d="M68,29C68,27.896 67.104,27 66,27L38,27C36.896,27 36,27.896 36,29L36,47C36,48.104 36.896,49 38,49L66,49C67.104,49 68,48.104 68,47L68,29Z" style="fill:rgb(62,54,54);"/>
            <path d="M50,2C50,0.896 49.104,0 48,0L20,0C18.896,0 18,0.896 18,2L18,20C18,21.104 18.896,22 20,22L48,22C49.104,22 50,21.104 50,20L50,2Z" style="fill:rgb(62,54,54);"/>
        </g>
    </g>
</svg>
