<?xml version="1.0" encoding="UTF-8" standalone="no"?>
<!DOCTYPE svg PUBLIC "-//W3C//DTD SVG 1.1//EN" "http://www.w3.org/Graphics/SVG/1.1/DTD/svg11.dtd">
<svg width="100%" height="100%" viewBox="0 0 245 245" version="1.1" xmlns="http://www.w3.org/2000/svg" xmlns:xlink="http://www.w3.org/1999/xlink" xml:space="preserve" xmlns:serif="http://www.serif.com/" style="fill-rule:evenodd;clip-rule:evenodd;stroke-linejoin:round;stroke-miterlimit:2;">
    <g id="Layer-1" serif:id="Layer 1" transform="matrix(4.16667,0,0,4.16667,0,0)">
        <g transform="matrix(1,0,0,1,26.8735,6.5073)">
            <path d="M0,34.146L-2.068,32.952L-2.075,32.952L-4.144,31.752C6.042,19.653 4.537,13.278 7.229,8.626C9.901,4.001 16.853,0.061 16.948,0L16.954,0C16.954,0.122 17.016,8.111 14.35,12.729C11.658,17.395 5.392,19.273 0,34.146" style="fill:rgb(35,31,32);fill-rule:nonzero;"/>
        </g>
        <g transform="matrix(1,0,0,1,16.355,36.3468)">
            <path d="M0,14.601C2.089,12.777 4.869,6.178 4.869,6.178L-2.692,2.679C-2.692,2.679 1.668,-2.631 6.456,-3.75C3.33,-2.461 2.394,0.57 2.394,0.57L7.894,3.425L13.394,6.924C13.394,6.924 15.829,4.591 15.388,1.248C16.812,5.948 14.391,12.458 14.391,12.458L7.582,7.697C7.582,7.697 3.255,13.428 2.72,16.147L3.832,16.995C3.832,16.995 3.73,18.006 3.411,18.175C3.099,18.351 0.766,16.961 0.529,16.826C0.292,16.683 -2.075,15.368 -2.089,15.008C-2.096,14.649 -1.275,14.059 -1.275,14.059L0,14.601Z" style="fill:rgb(35,31,32);fill-rule:nonzero;"/>
        </g>
    </g>
</svg>
