<?xml version="1.0" encoding="UTF-8" standalone="no"?>
<!DOCTYPE svg PUBLIC "-//W3C//DTD SVG 1.1//EN" "http://www.w3.org/Graphics/SVG/1.1/DTD/svg11.dtd">
<svg width="100%" height="100%" viewBox="0 0 245 245" version="1.1" xmlns="http://www.w3.org/2000/svg" xmlns:xlink="http://www.w3.org/1999/xlink" xml:space="preserve" xmlns:serif="http://www.serif.com/" style="fill-rule:evenodd;clip-rule:evenodd;stroke-linejoin:round;stroke-miterlimit:2;">
    <g id="Layer-1" serif:id="Layer 1" transform="matrix(4.16667,0,0,4.16667,0,0)">
        <g transform="matrix(1,0,0,1,39.415,29.6065)">
            <path d="M0,6.371C-0.852,12.156 -10.082,15.885 -10.082,15.885C-10.082,15.885 -19.312,12.156 -20.164,6.371L-20.164,-7.546L-10.082,-9.514L0,-7.546L0,6.371ZM-10.082,-12.26L-22.346,-9.868L-22.346,7.06C-21.31,14.096 -10.082,18.631 -10.082,18.631C-10.082,18.631 1.146,14.096 2.182,7.06L2.182,-9.868L-10.082,-12.26Z" style="fill:rgb(35,31,32);fill-rule:nonzero;"/>
        </g>
        <g transform="matrix(1,0,0,1,20.498,42.1952)">
            <path d="M0,-18.807L0,-6.612C0.746,-1.543 8.835,1.724 8.835,1.724C8.835,1.724 16.924,-1.543 17.67,-6.612L17.67,-18.807L8.835,-20.531L0,-18.807Z" style="fill:rgb(35,31,32);fill-rule:nonzero;"/>
        </g>
    </g>
</svg>
